<svg width="20" height="20" viewBox="0 0 20 20" fill="none" xmlns="http://www.w3.org/2000/svg">
<path fill-rule="evenodd" clip-rule="evenodd" d="M16.494 0.769706C18.5889 1.94295 20.0629 4.325 19.9979 7.1039C19.9169 10.5727 17.108 13.6322 12.319 16.365C11.609 16.7705 10.861 17.2961 10 17.2961C9.15501 17.2961 8.37501 16.7609 7.68002 16.364C2.89305 13.6322 0.0830671 10.5718 0.00206768 7.1039C-0.0629319 4.325 1.41106 1.94392 3.50604 0.769706C5.46603 -0.326671 7.92801 -0.333397 10 1.2857C12.072 -0.333397 14.534 -0.327631 16.494 0.769706ZM15.487 2.43109C14.093 1.65084 12.351 1.67871 10.843 3.14503C10.7324 3.25165 10.6011 3.33626 10.4564 3.39398C10.3117 3.45171 10.1566 3.48143 10 3.48143C9.84336 3.48143 9.68826 3.45171 9.5436 3.39398C9.39894 3.33626 9.26756 3.25165 9.15701 3.14503C7.64902 1.67871 5.90703 1.65084 4.51304 2.43109C3.06905 3.24016 1.95305 4.95631 2.00205 7.06258C2.05805 9.47538 4.04204 12.0535 8.70201 14.7132C9.11001 14.9467 9.536 15.2455 10 15.3695C10.464 15.2455 10.89 14.9467 11.298 14.7132C15.958 12.0535 17.9419 9.47634 17.9979 7.06162C18.0479 4.95727 16.931 3.24016 15.487 2.43109Z" fill="#616E7C"/>
</svg>
