<svg width="20" height="20" viewBox="0 0 20 20" fill="none" xmlns="http://www.w3.org/2000/svg">
<path d="M10.833 3.33333C10.833 3.11232 10.7452 2.90036 10.5889 2.74408C10.4326 2.5878 10.2207 2.5 9.99967 2.5C9.77866 2.5 9.5667 2.5878 9.41042 2.74408C9.25414 2.90036 9.16634 3.11232 9.16634 3.33333V4.16667H7.91634C7.03229 4.16667 6.18444 4.51786 5.55932 5.14298C4.9342 5.7681 4.58301 6.61594 4.58301 7.5C4.58301 8.38405 4.9342 9.2319 5.55932 9.85702C6.18444 10.4821 7.03229 10.8333 7.91634 10.8333H12.083C12.525 10.8333 12.949 11.0089 13.2615 11.3215C13.5741 11.634 13.7497 12.058 13.7497 12.5C13.7497 12.942 13.5741 13.3659 13.2615 13.6785C12.949 13.9911 12.525 14.1667 12.083 14.1667H5.83301C5.61199 14.1667 5.40003 14.2545 5.24375 14.4107C5.08747 14.567 4.99967 14.779 4.99967 15C4.99967 15.221 5.08747 15.433 5.24375 15.5893C5.40003 15.7455 5.61199 15.8333 5.83301 15.8333H9.16634V16.6667C9.16634 16.8877 9.25414 17.0996 9.41042 17.2559C9.5667 17.4122 9.77866 17.5 9.99967 17.5C10.2207 17.5 10.4326 17.4122 10.5889 17.2559C10.7452 17.0996 10.833 16.8877 10.833 16.6667V15.8333H12.083C12.9671 15.8333 13.8149 15.4821 14.44 14.857C15.0652 14.2319 15.4163 13.3841 15.4163 12.5C15.4163 11.6159 15.0652 10.7681 14.44 10.143C13.8149 9.51786 12.9671 9.16667 12.083 9.16667H7.91634C7.47431 9.16667 7.05039 8.99107 6.73783 8.67851C6.42527 8.36595 6.24967 7.94203 6.24967 7.5C6.24967 7.05797 6.42527 6.63405 6.73783 6.32149C7.05039 6.00893 7.47431 5.83333 7.91634 5.83333H14.1663C14.3874 5.83333 14.5993 5.74554 14.7556 5.58926C14.9119 5.43298 14.9997 5.22101 14.9997 5C14.9997 4.77899 14.9119 4.56702 14.7556 4.41074C14.5993 4.25446 14.3874 4.16667 14.1663 4.16667H10.833V3.33333Z" fill="#3E4C59"/>
</svg>
