<svg width="16" height="12" viewBox="0 0 16 12" fill="none" xmlns="http://www.w3.org/2000/svg">
<path d="M9.77778 10.2052C10.0043 10.2054 10.2223 10.2884 10.387 10.4372C10.5517 10.586 10.6509 10.7894 10.6642 11.0058C10.6774 11.2221 10.6038 11.4352 10.4584 11.6014C10.313 11.7677 10.1068 11.8745 9.88178 11.9001L9.77778 11.906H6.22222C5.99566 11.9058 5.77775 11.8228 5.61301 11.674C5.44826 11.5252 5.34912 11.3218 5.33585 11.1054C5.32257 10.8891 5.39615 10.676 5.54157 10.5098C5.68698 10.3435 5.89325 10.2367 6.11822 10.2111L6.22222 10.2052H9.77778ZM12.4444 5.10258C12.6802 5.10258 12.9063 5.19218 13.073 5.35167C13.2397 5.51116 13.3333 5.72747 13.3333 5.95301C13.3333 6.17856 13.2397 6.39487 13.073 6.55436C12.9063 6.71385 12.6802 6.80344 12.4444 6.80344H3.55556C3.31981 6.80344 3.09372 6.71385 2.92702 6.55436C2.76032 6.39487 2.66667 6.17856 2.66667 5.95301C2.66667 5.72747 2.76032 5.51116 2.92702 5.35167C3.09372 5.19218 3.31981 5.10258 3.55556 5.10258H12.4444ZM15.1111 0C15.3469 0 15.573 0.0895988 15.7397 0.249086C15.9064 0.408572 16 0.624882 16 0.850431C16 1.07598 15.9064 1.29229 15.7397 1.45178C15.573 1.61126 15.3469 1.70086 15.1111 1.70086H0.888889C0.653141 1.70086 0.427048 1.61126 0.260349 1.45178C0.0936505 1.29229 0 1.07598 0 0.850431C0 0.624882 0.0936505 0.408572 0.260349 0.249086C0.427048 0.0895988 0.653141 0 0.888889 0H15.1111Z" fill="#1F2933"/>
</svg>
