<svg width="24" height="24" viewBox="0 0 24 24" fill="none" xmlns="http://www.w3.org/2000/svg">
<path fill-rule="evenodd" clip-rule="evenodd" d="M19.7927 0.923648C22.3067 2.33155 24.0755 5.19 23.9975 8.52468C23.9003 12.6873 20.5295 16.3586 14.7828 19.638C13.9308 20.1246 13.0332 20.7553 12 20.7553C10.986 20.7553 10.05 20.113 9.21602 19.6368C3.47166 16.3586 0.0996806 12.6861 0.00248122 8.52468C-0.0755183 5.19 1.69327 2.3327 4.20725 0.923648C6.55924 -0.392005 9.51362 -0.400076 12 1.54285C14.4864 -0.400076 17.4408 -0.393158 19.7927 0.923648ZM18.5844 2.91731C16.9116 1.98101 14.8212 2.01445 13.0116 3.77404C12.8789 3.90199 12.7213 4.00351 12.5477 4.07278C12.3741 4.14205 12.188 4.17771 12 4.17771C11.812 4.17771 11.6259 4.14205 11.4523 4.07278C11.2787 4.00351 11.1211 3.90199 10.9884 3.77404C9.17882 2.01445 7.08843 1.98101 5.41564 2.91731C3.68286 3.88819 2.34367 5.94757 2.40246 8.4751C2.46966 11.3705 4.85045 14.4641 10.4424 17.6558C10.932 17.936 11.4432 18.2946 12 18.4434C12.5568 18.2946 13.068 17.936 13.5576 17.6558C19.1496 14.4641 21.5303 11.3716 21.5975 8.47395C21.6575 5.94873 20.3171 3.88819 18.5844 2.91731Z" fill="#1F2933"/>
</svg>
