<svg width="20" height="20" viewBox="0 0 20 20" fill="none" xmlns="http://www.w3.org/2000/svg">
<path fill-rule="evenodd" clip-rule="evenodd" d="M2.08399 7.49982C2.08367 7.19751 2.19293 6.90533 2.39153 6.67739C2.59012 6.44946 2.86459 6.30122 3.1641 6.26014C3.46361 6.21905 3.76786 6.2879 4.02049 6.45393C4.27313 6.61996 4.45704 6.87193 4.53815 7.16316C6.16065 12.5815 13.8365 12.5823 15.4623 7.16732C15.508 7.00895 15.5846 6.86118 15.6876 6.73252C15.7906 6.60385 15.9181 6.49683 16.0626 6.41762C16.2071 6.3384 16.3659 6.28855 16.5298 6.27095C16.6937 6.25334 16.8594 6.26832 17.0175 6.31502C17.1756 6.36172 17.3229 6.43922 17.4509 6.54307C17.5789 6.64691 17.6851 6.77505 17.7634 6.9201C17.8416 7.06515 17.8905 7.22425 17.907 7.38824C17.9236 7.55224 17.9075 7.71789 17.8598 7.87566C17.5751 8.84867 17.1169 9.76223 16.5073 10.5723L17.3073 11.3723C17.4266 11.4877 17.5218 11.6257 17.5872 11.7782C17.6527 11.9307 17.6871 12.0948 17.6885 12.2607C17.6898 12.4267 17.6581 12.5913 17.5952 12.7449C17.5323 12.8985 17.4394 13.038 17.322 13.1553C17.2045 13.2726 17.0649 13.3654 16.9113 13.4282C16.7576 13.4909 16.593 13.5225 16.4271 13.521C16.2611 13.5194 16.0971 13.4849 15.9446 13.4193C15.7921 13.3537 15.6542 13.2584 15.539 13.139L14.6973 12.2973C14.2598 12.597 13.7937 12.8524 13.3057 13.0598L13.5082 13.8148C13.585 14.132 13.5347 14.4666 13.3682 14.7472C13.2016 15.0278 12.9319 15.2321 12.6167 15.3165C12.3015 15.401 11.9658 15.3588 11.6813 15.199C11.3967 15.0393 11.186 14.7746 11.094 14.4615L10.8848 13.6823C10.2973 13.7432 9.70399 13.7432 9.11649 13.6823L8.90815 14.4615C8.8224 14.7817 8.61294 15.0548 8.32585 15.2206C8.03876 15.3864 7.69757 15.4314 7.37732 15.3457C7.05707 15.2599 6.784 15.0504 6.61819 14.7634C6.45238 14.4763 6.4074 14.1351 6.49315 13.8148L6.69482 13.059C6.20713 12.8518 5.74123 12.5966 5.30398 12.2973L4.46232 13.139C4.34707 13.2584 4.20918 13.3537 4.05671 13.4193C3.90423 13.4849 3.74022 13.5194 3.57425 13.521C3.40828 13.5225 3.24366 13.4909 3.09002 13.4282C2.93637 13.3654 2.79676 13.2726 2.67934 13.1553C2.56192 13.038 2.46904 12.8985 2.40611 12.7449C2.34319 12.5913 2.31148 12.4267 2.31285 12.2607C2.31421 12.0948 2.34861 11.9307 2.41405 11.7782C2.47949 11.6257 2.57465 11.4877 2.69399 11.3723L3.49398 10.5723C2.88584 9.76355 2.42852 8.85174 2.14399 7.88066C2.10441 7.75758 2.08417 7.62911 2.08399 7.49982Z" fill="#616E7C"/>
</svg>
