<svg width="20" height="20" viewBox="0 0 20 20" fill="none" xmlns="http://www.w3.org/2000/svg">
<path d="M13.3337 14.1666C13.5379 14.1666 13.7349 14.0917 13.8874 13.956C14.0399 13.8204 14.1374 13.6335 14.1612 13.4308L14.1671 13.3333V5.3158L15.6904 6.83913C15.84 6.99018 16.0417 7.07832 16.2542 7.08553C16.4667 7.09274 16.6739 7.01847 16.8334 6.87791C16.9929 6.73735 17.0927 6.54114 17.1122 6.32944C17.1318 6.11774 17.0698 5.90656 16.9387 5.73913L16.8687 5.6608L13.9229 2.71413C13.7794 2.57065 13.5885 2.48446 13.386 2.47172C13.1835 2.45899 12.9832 2.52059 12.8229 2.64496L12.7446 2.71413L9.79791 5.6608C9.64845 5.81076 9.56168 6.01199 9.55522 6.22362C9.54876 6.43524 9.62309 6.64139 9.76312 6.80019C9.90315 6.959 10.0984 7.05855 10.3091 7.07863C10.5199 7.09871 10.7304 7.03781 10.8979 6.9083L10.9771 6.83913L12.5004 5.31663V13.3333C12.5004 13.5543 12.5882 13.7663 12.7445 13.9226C12.9008 14.0788 13.1127 14.1666 13.3337 14.1666ZM7.25624 17.2858L10.2021 14.3391C10.2817 14.2623 10.3452 14.1703 10.3888 14.0686C10.4325 13.967 10.4555 13.8576 10.4565 13.747C10.4574 13.6363 10.4363 13.5266 10.3944 13.4242C10.3525 13.3218 10.2906 13.2287 10.2124 13.1505C10.1342 13.0722 10.0411 13.0103 9.93871 12.9684C9.83629 12.9265 9.72656 12.9055 9.61591 12.9064C9.50526 12.9074 9.39591 12.9304 9.29424 12.974C9.19257 13.0177 9.10062 13.0812 9.02374 13.1608L7.50041 14.6841V6.66746C7.50041 6.44645 7.41261 6.23449 7.25633 6.07821C7.10005 5.92193 6.88809 5.83413 6.66708 5.83413C6.44606 5.83413 6.2341 5.92193 6.07782 6.07821C5.92154 6.23449 5.83374 6.44645 5.83374 6.66746V14.6833L4.30874 13.1608C4.15158 13.009 3.94107 12.925 3.72258 12.9269C3.50408 12.9288 3.29507 13.0164 3.14056 13.1709C2.98606 13.3255 2.89841 13.5345 2.89652 13.753C2.89462 13.9715 2.97861 14.182 3.13041 14.3391L6.07708 17.2858C6.23335 17.442 6.44527 17.5298 6.66624 17.5298C6.88721 17.5298 7.09997 17.442 7.25624 17.2858Z" fill="#3E4C59"/>
</svg>
