<svg width="20" height="20" viewBox="0 0 20 20" fill="none" xmlns="http://www.w3.org/2000/svg">
<path d="M10.3535 3.59435C10.2598 3.50071 10.1327 3.44812 10.0002 3.44812C9.8677 3.44812 9.74062 3.50071 9.64687 3.59435L7.76087 5.47968C7.71442 5.52612 7.67758 5.58126 7.65245 5.64194C7.62731 5.70263 7.61437 5.76766 7.61437 5.83335C7.61437 5.89903 7.62731 5.96407 7.65245 6.02475C7.67758 6.08543 7.71442 6.14057 7.76087 6.18701C7.80731 6.23346 7.86245 6.2703 7.92313 6.29543C7.98381 6.32057 8.04885 6.33351 8.11453 6.33351C8.18022 6.33351 8.24525 6.32057 8.30594 6.29543C8.36662 6.2703 8.42176 6.23346 8.4682 6.18701L9.5002 5.15501V9.00001C9.5002 9.13262 9.55288 9.2598 9.64665 9.35357C9.74041 9.44733 9.86759 9.50001 10.0002 9.50001C10.1328 9.50001 10.26 9.44733 10.3538 9.35357C10.4475 9.2598 10.5002 9.13262 10.5002 9.00001V5.15501L11.5322 6.18701C11.626 6.28077 11.7532 6.33342 11.8858 6.33339C12.0184 6.33336 12.1456 6.28065 12.2394 6.18685C12.3331 6.09305 12.3858 5.96585 12.3857 5.83323C12.3857 5.70061 12.333 5.57343 12.2392 5.47968L10.3535 3.59435Z" fill="#3E4C59"/>
<path d="M9.64647 16.4057C9.74022 16.4993 9.8673 16.5519 9.9998 16.5519C10.1323 16.5519 10.2594 16.4993 10.3531 16.4057L12.2391 14.5203C12.2856 14.4739 12.3224 14.4187 12.3476 14.3581C12.3727 14.2974 12.3856 14.2323 12.3856 14.1667C12.3856 14.101 12.3727 14.0359 12.3476 13.9753C12.3224 13.9146 12.2856 13.8594 12.2391 13.813C12.1927 13.7665 12.1376 13.7297 12.0769 13.7046C12.0162 13.6794 11.9511 13.6665 11.8855 13.6665C11.8198 13.6665 11.7547 13.6794 11.6941 13.7046C11.6334 13.7297 11.5782 13.7665 11.5318 13.813L10.4998 14.845V11C10.4998 10.8674 10.4471 10.7402 10.3534 10.6464C10.2596 10.5527 10.1324 10.5 9.9998 10.5C9.86719 10.5 9.74001 10.5527 9.64625 10.6464C9.55248 10.7402 9.4998 10.8674 9.4998 11V14.845L8.4678 13.813C8.374 13.7192 8.2468 13.6666 8.11418 13.6666C7.98156 13.6666 7.85439 13.7194 7.76063 13.8132C7.66688 13.907 7.61423 14.0342 7.61426 14.1668C7.61429 14.2994 7.667 14.4266 7.7608 14.5203L9.64647 16.4057Z" fill="#3E4C59"/>
</svg>
