<svg width="20" height="20" viewBox="0 0 20 20" fill="none" xmlns="http://www.w3.org/2000/svg">
<path fill-rule="evenodd" clip-rule="evenodd" d="M12.3288 2.5C12.6175 2.50019 12.8972 2.6003 13.1205 2.78333L13.2121 2.86667L14.5138 4.16667H16.668C17.0884 4.16653 17.4934 4.32534 17.8018 4.61125C18.1101 4.89716 18.2989 5.28904 18.3305 5.70833L18.3346 5.83333V15.8333C18.3348 16.2538 18.176 16.6588 17.8901 16.9671C17.6041 17.2754 17.2123 17.4643 16.793 17.4958L16.668 17.5H3.33464C2.91416 17.5001 2.50916 17.3413 2.20085 17.0554C1.89253 16.7695 1.70367 16.3776 1.67214 15.9583L1.66797 15.8333V5.83333C1.66784 5.41285 1.82664 5.00786 2.11255 4.69954C2.39846 4.39123 2.79034 4.20237 3.20964 4.17083L3.33464 4.16667H5.48964L6.78964 2.86667C6.99388 2.66202 7.26276 2.5345 7.55047 2.50583L7.6738 2.5H12.3288ZM12.1563 4.16667H7.8463L6.5463 5.46667C6.34206 5.67132 6.07318 5.79884 5.78547 5.8275L5.66214 5.83333H3.33464V15.8333H16.668V5.83333H14.3405C14.0518 5.83314 13.7721 5.73303 13.5488 5.55L13.4571 5.46667L12.1563 4.16667ZM10.0013 6.25C11.1064 6.25 12.1662 6.68899 12.9476 7.47039C13.729 8.25179 14.168 9.3116 14.168 10.4167C14.168 11.5217 13.729 12.5815 12.9476 13.3629C12.1662 14.1443 11.1064 14.5833 10.0013 14.5833C8.89623 14.5833 7.83643 14.1443 7.05502 13.3629C6.27362 12.5815 5.83464 11.5217 5.83464 10.4167C5.83464 9.3116 6.27362 8.25179 7.05502 7.47039C7.83643 6.68899 8.89623 6.25 10.0013 6.25ZM10.0013 7.91667C9.673 7.91667 9.34791 7.98133 9.04459 8.10697C8.74128 8.2326 8.46568 8.41675 8.23353 8.6489C8.00139 8.88105 7.81724 9.15664 7.6916 9.45996C7.56597 9.76327 7.5013 10.0884 7.5013 10.4167C7.5013 10.745 7.56597 11.0701 7.6916 11.3734C7.81724 11.6767 8.00139 11.9523 8.23353 12.1844C8.46568 12.4166 8.74128 12.6007 9.04459 12.7264C9.34791 12.852 9.673 12.9167 10.0013 12.9167C10.6643 12.9167 11.3002 12.6533 11.7691 12.1844C12.2379 11.7156 12.5013 11.0797 12.5013 10.4167C12.5013 9.75363 12.2379 9.11774 11.7691 8.6489C11.3002 8.18006 10.6643 7.91667 10.0013 7.91667Z" fill="#3E4C59"/>
</svg>
