<svg width="12" height="12" viewBox="0 0 12 12" fill="none" xmlns="http://www.w3.org/2000/svg">
<path d="M5.32523 3.83275V6.28609C5.32523 6.51942 5.4519 6.73942 5.6519 6.85942C5.8519 6.97942 7.7319 8.09275 7.7319 8.09275C7.9719 8.23275 8.27857 8.15275 8.41857 7.91942C8.55857 7.67942 8.48523 7.37275 8.24523 7.23275L6.3319 6.09275V3.82609C6.32523 3.55942 6.09857 3.33275 5.82523 3.33275C5.5519 3.33275 5.32523 3.55942 5.32523 3.83275ZM11.9919 4.33275V0.806088C11.9919 0.506088 11.6319 0.359421 11.4252 0.572754L10.2386 1.75942C9.61408 1.1349 8.85955 0.655771 8.02873 0.35617C7.19791 0.0565689 6.31125 -0.0561346 5.4319 0.0260876C2.63857 0.279421 0.338565 2.52609 0.0318987 5.31942C-0.130207 6.88567 0.329888 8.45287 1.31293 9.68293C2.29596 10.913 3.72315 11.7073 5.28659 11.8946C6.85004 12.0818 8.42443 11.6469 9.67011 10.6837C10.9158 9.72058 11.7329 8.30632 11.9452 6.74609C11.9919 6.34609 11.6786 5.99942 11.2786 5.99942C10.9452 5.99942 10.6652 6.24609 10.6252 6.57275C10.3386 8.89942 8.3319 10.6994 5.92523 10.6661C3.4519 10.6328 1.36523 8.54609 1.32523 6.06609C1.28523 3.46609 3.39857 1.33275 5.9919 1.33275C7.27857 1.33275 8.44523 1.85942 9.2919 2.69942L7.89857 4.09275C7.68523 4.30609 7.8319 4.66609 8.1319 4.66609H11.6586C11.8452 4.66609 11.9919 4.51942 11.9919 4.33275Z" fill="#969696"/>
</svg>
