<svg width="18" height="19" viewBox="0 0 18 19" fill="none" xmlns="http://www.w3.org/2000/svg">
<path d="M4.57898e-05 8.82082C-0.00828754 7.76498 1.12255 7.16498 1.98255 7.64915L2.07671 7.70748L4.30838 9.21082C5.49505 10.0108 4.75671 11.8325 3.39171 11.64L3.27755 11.6191L3.18671 11.5991C3.69915 12.5995 4.47173 13.4433 5.42318 14.0417C6.37463 14.64 7.46977 14.9709 8.59338 14.9995C9.717 15.0281 10.8275 14.7533 11.8082 14.204C12.7888 13.6548 13.6033 12.8513 14.1659 11.8783C14.2478 11.7361 14.357 11.6113 14.4872 11.5113C14.6174 11.4112 14.766 11.3377 14.9245 11.2951C15.0831 11.2525 15.2485 11.2415 15.4113 11.2628C15.5741 11.284 15.7311 11.3372 15.8734 11.4191C16.0156 11.5011 16.1404 11.6103 16.2404 11.7405C16.3405 11.8706 16.414 12.0192 16.4566 12.1778C16.4992 12.3364 16.5102 12.5018 16.4889 12.6646C16.4677 12.8274 16.4145 12.9844 16.3325 13.1266C14.4017 16.4767 10.4 18.2533 6.48671 17.2041C4.6372 16.709 3.00117 15.6208 1.82948 14.1065C0.657793 12.5922 0.0151327 10.7354 4.57898e-05 8.82082ZM1.17171 4.37915C3.10171 1.02832 7.10338 -0.747517 11.0167 0.299983C12.8662 0.795181 14.5023 1.88335 15.6739 3.39764C16.8456 4.91192 17.4883 6.76872 17.5034 8.68332C17.5117 9.73915 16.3809 10.3391 15.5209 9.85582L15.4267 9.79748L13.195 8.29332C12.0084 7.49415 12.7467 5.67248 14.1109 5.86498L14.2259 5.88582L14.3159 5.90498C13.8033 4.9047 13.0306 4.06107 12.079 3.46284C11.1275 2.86461 10.0323 2.5339 8.90871 2.5055C7.7851 2.4771 6.67461 2.75206 5.69407 3.30146C4.71352 3.85086 3.89918 4.65438 3.33671 5.62748C3.2572 5.77429 3.14908 5.90368 3.01875 6.00802C2.88841 6.11235 2.73849 6.18952 2.57784 6.23497C2.41719 6.28042 2.24906 6.29322 2.08338 6.27263C1.9177 6.25203 1.75782 6.19846 1.61318 6.11506C1.46855 6.03166 1.34209 5.92014 1.24126 5.78707C1.14043 5.65399 1.06728 5.50207 1.02613 5.34026C0.984985 5.17846 0.976666 5.01005 1.00167 4.84498C1.02667 4.6799 1.08449 4.52151 1.17171 4.37915Z" fill="#7E2F4E"/>
</svg>
