<svg width="20" height="20" viewBox="0 0 20 20" fill="none" xmlns="http://www.w3.org/2000/svg">
<path d="M10.0013 4.1665C13.0671 4.1665 16.803 6.18067 18.1096 9.084C18.2313 9.35734 18.3346 9.67567 18.3346 9.99984C18.3346 10.3232 18.2321 10.6423 18.1096 10.9157C16.8021 13.819 13.0663 15.8332 10.0013 15.8332C6.9363 15.8332 3.19964 13.819 1.89297 10.9157C1.7713 10.6415 1.66797 10.324 1.66797 9.99984C1.66797 9.6765 1.77047 9.35734 1.89297 9.084C3.20047 6.18067 6.9363 4.1665 10.0013 4.1665ZM10.0013 6.6665C9.11725 6.6665 8.2694 7.01769 7.64428 7.64281C7.01916 8.26794 6.66797 9.11578 6.66797 9.99984C6.66797 10.8839 7.01916 11.7317 7.64428 12.3569C8.2694 12.982 9.11725 13.3332 10.0013 13.3332C10.8854 13.3332 11.7332 12.982 12.3583 12.3569C12.9834 11.7317 13.3346 10.8839 13.3346 9.99984C13.3346 9.11578 12.9834 8.26794 12.3583 7.64281C11.7332 7.01769 10.8854 6.6665 10.0013 6.6665ZM10.0013 8.33317C10.4433 8.33317 10.8673 8.50877 11.1798 8.82133C11.4924 9.13389 11.668 9.55781 11.668 9.99984C11.668 10.4419 11.4924 10.8658 11.1798 11.1783C10.8673 11.4909 10.4433 11.6665 10.0013 11.6665C9.55927 11.6665 9.13535 11.4909 8.82279 11.1783C8.51023 10.8658 8.33464 10.4419 8.33464 9.99984C8.33464 9.55781 8.51023 9.13389 8.82279 8.82133C9.13535 8.50877 9.55927 8.33317 10.0013 8.33317Z" fill="#1F2933"/>
</svg>
