<svg width="18" height="18" viewBox="0 0 18 18" fill="none" xmlns="http://www.w3.org/2000/svg">
<path d="M7.6736 0.517196C7.7653 0.359829 7.89666 0.229258 8.05458 0.138507C8.2125 0.0477571 8.39146 0 8.5736 0C8.75573 0 8.93469 0.0477571 9.09261 0.138507C9.25053 0.229258 9.38189 0.359829 9.4736 0.517196L11.8028 4.51553L16.3261 5.49553C16.504 5.53419 16.6687 5.61882 16.8037 5.74097C16.9388 5.86313 17.0394 6.01854 17.0956 6.19171C17.1519 6.36489 17.1617 6.54979 17.1242 6.72796C17.0867 6.90614 17.0032 7.07137 16.8819 7.20719L13.7986 10.658L14.2653 15.2622C14.2837 15.4435 14.2542 15.6264 14.1798 15.7928C14.1054 15.9591 13.9886 16.103 13.8412 16.2102C13.6938 16.3173 13.5208 16.3838 13.3396 16.4032C13.1584 16.4226 12.9753 16.3941 12.8086 16.3205L8.5736 14.4539L4.3386 16.3205C4.17186 16.3941 3.98875 16.4226 3.80756 16.4032C3.62636 16.3838 3.45342 16.3173 3.30599 16.2102C3.15856 16.103 3.04182 15.9591 2.9674 15.7928C2.89299 15.6264 2.86352 15.4435 2.88193 15.2622L3.3486 10.658L0.265263 7.20803C0.143786 7.07222 0.0600589 6.90691 0.0224408 6.72863C-0.0151773 6.55034 -0.00537039 6.3653 0.0508823 6.19199C0.107135 6.01868 0.207866 5.86315 0.343018 5.74094C0.47817 5.61873 0.643015 5.53411 0.821096 5.49553L5.34443 4.51553L7.6736 0.517196Z" fill="#F4A261"/>
</svg>
